<svg width="52" height="58" viewBox="0 0 52 58" fill="none" xmlns="http://www.w3.org/2000/svg">
<path d="M51.375 33.8333V58H33.25V53.1667H17.5417V58H0.625V33.8333H51.375ZM40.4384 29.429C39.7448 26.3973 38.18 23.7317 35.7138 21.6944C33.3249 19.7091 30.4986 19.3333 27.2204 18.125H27.2083V10.4787L27.8415 10.3083L29.2275 9.79475C29.7603 9.61471 30.2425 9.46367 30.7451 9.35733C31.2381 9.24013 31.5801 9.19058 31.8145 9.19058C32.27 9.19058 32.8464 9.26308 33.5207 9.4105C34.207 9.57725 34.938 9.75729 35.6812 9.9615C36.4557 10.1959 37.1469 10.3735 37.8175 10.5246C38.4567 10.6708 38.992 10.7312 39.4355 10.7312C40.1411 10.7324 40.5 10.6345 41.7083 10.4195V1.66871C40.5 1.95629 40.2861 2.11458 39.4342 2.11458C38.9908 2.11458 38.4422 2.04692 37.8018 1.885C37.1336 1.75692 36.4448 1.55754 35.6703 1.33279C34.9797 1.12546 34.2811 0.945677 33.5763 0.793875C32.9201 0.638 32.4936 0.563083 32.0296 0.563083C30.4914 0.563083 28.4167 0.926792 27.2083 1.59742V0H24.7917V18.125H24.7155C21.4627 19.3333 18.6147 19.778 16.2282 21.7633C13.8091 23.803 12.2383 26.2957 11.4952 29.3287C11.4952 29.3287 9.17879 29 9.17879 31.4167H42.9759C42.9759 29 40.4384 29.429 40.4384 29.429Z" fill="#3E4347"/>
</svg>
