<svg width="58" height="58" viewBox="0 0 58 58" fill="none" xmlns="http://www.w3.org/2000/svg">
<path d="M57.8396 36.1705L57.9005 36.3503L57.9672 36.6403L57.9962 36.9303V55.8252C57.996 56.3516 57.8049 56.8601 57.4582 57.2563C57.1116 57.6525 56.6331 57.9095 56.1114 57.9797L55.8214 58H2.17849C1.65294 58 1.14518 57.8097 0.749105 57.4642C0.353029 57.1188 0.0954349 56.6416 0.0239604 56.1209L0.00366211 55.8252V36.9767L0.00946192 36.8259L0.0384596 36.5765C0.0678906 36.4242 0.113582 36.2754 0.174749 36.1328L8.17812 18.6791C8.32908 18.3491 8.56019 18.0622 8.8504 17.8444C9.14061 17.6266 9.4807 17.4849 9.83969 17.4322L10.1529 17.4119L17.5183 17.409L15.2275 21.3817L15.0332 21.7586H11.5448L5.56542 34.8018H52.4025L46.5247 22.1994L49.0243 17.8585C49.2186 18.0034 49.3868 18.1861 49.5231 18.392L49.6768 18.6675L57.8396 36.1705ZM32.9596 0.166947L33.2264 0.297437L48.2704 9.00545C49.2215 9.55641 49.5985 10.7192 49.1954 11.7109L49.0649 11.9777L40.9252 26.1025H44.2252C44.7801 26.0969 45.3162 26.3036 45.7237 26.6804C46.1312 27.0571 46.3793 27.5754 46.4171 28.1291C46.4549 28.6828 46.2796 29.23 45.9271 29.6586C45.5746 30.0873 45.0715 30.3649 44.521 30.4348L44.2252 30.4551L38.4198 30.4522V30.4609H26.5917L26.583 30.4522H13.7776C13.23 30.447 12.7045 30.2355 12.3061 29.8599C11.9076 29.4842 11.6655 28.9721 11.6282 28.4258C11.5908 27.8794 11.761 27.3391 12.1046 26.9128C12.4482 26.4864 12.94 26.2053 13.4818 26.1257L13.7776 26.1054L19.0639 26.1025L18.5361 25.798C18.0824 25.5337 17.7394 25.1145 17.57 24.6174C17.4006 24.1204 17.4162 23.579 17.614 23.0925L17.7416 22.8258L30.2599 1.08907C30.8108 0.135049 31.9707 -0.244821 32.9596 0.161147V0.166947ZM32.9306 5.15455L22.59 23.1157L27.7458 26.1025H35.9144L44.2223 11.6819L32.9364 5.14876L32.9306 5.15455Z" fill="#3E4347"/>
</svg>
